P3 
21 21 
255
255 255 255
255 255 255
255 255 255
255 255 255
255 255 255
0 0 255
255 255 255
255 255 255
255 255 255
255 255 255
255 255 255
255 255 255
255 255 255
255 255 255
255 255 255
0 255 0
255 255 255
255 255 255
255 255 255
255 255 255
255 255 255
255 255 255
255 255 255
255 255 255
255 255 255
255 255 255
0 0 255
255 255 255
255 255 255
255 255 255
255 255 255
255 255 255
255 255 255
255 255 255
255 255 255
255 255 255
0 255 0
255 255 255
255 255 255
255 255 255
255 255 255
255 255 255
255 255 255
255 255 255
255 255 255
255 255 255
255 255 255
255 255 255
0 0 255
255 255 255
255 255 255
255 255 255
255 255 255
255 255 255
255 255 255
255 255 255
0 255 0
255 255 255
255 255 255
255 255 255
255 255 255
255 255 255
255 255 255
255 255 255
255 255 255
255 255 255
255 255 255
255 255 255
255 255 255
0 0 255
255 255 255
255 255 255
255 255 255
255 255 255
255 255 255
255 255 255
255 255 255
0 255 0
255 255 255
255 255 255
255 255 255
255 255 255
255 255 255
255 255 255
255 255 255
255 255 255
255 255 255
255 255 255
255 255 255
255 255 255
255 255 255
0 0 255
255 255 255
255 255 255
255 255 255
255 255 255
255 255 255
0 255 0
255 255 255
255 255 255
255 255 255
255 255 255
255 255 255
255 255 255
255 255 255
255 255 0
255 255 0
255 255 255
255 255 255
255 255 255
255 255 255
255 255 255
0 0 255
255 255 255
255 255 255
255 255 255
255 255 255
255 255 255
0 255 0
255 255 255
255 255 255
255 255 255
255 255 255
255 255 255
255 0 0
255 0 0
255 255 255
255 255 255
255 255 0
255 255 0
255 255 255
255 255 255
255 255 255
255 255 255
0 0 255
255 255 255
255 255 255
255 255 255
0 255 0
255 255 255
255 255 255
255 255 255
255 255 255
255 0 0
255 0 0
255 255 255
255 255 255
255 255 255
255 255 255
255 255 255
255 255 255
255 255 0
255 255 0
255 255 255
255 255 255
0 0 255
255 255 255
255 255 255
255 255 255
0 255 0
255 255 255
255 255 255
255 0 0
255 0 0
255 255 255
255 255 255
255 255 255
255 255 255
255 255 255
255 255 255
255 255 255
255 255 255
255 255 255
255 255 255
255 255 0
255 255 0
255 255 255
0 0 255
255 255 255
0 255 0
255 255 255
255 0 0
255 0 0
255 255 255
255 255 255
255 255 255
255 255 255
255 255 255
255 255 255
255 255 255
255 255 255
255 255 255
255 255 255
255 255 255
255 255 255
255 255 255
255 255 255
255 255 0
255 255 0
255 255 255
0 255 0
255 0 0
255 255 255
255 255 255
255 255 255
255 255 255
255 255 255
255 255 255
255 255 255
255 255 255
255 255 255
255 255 255
255 255 255
255 255 255
255 255 255
255 255 255
255 255 255
255 255 255
255 255 255
255 255 255
0 0 0
255 255 255
255 255 255
255 255 255
255 255 255
255 255 255
255 255 255
255 255 255
255 255 255
255 255 255
255 255 255
255 255 255
255 255 255
255 255 255
255 255 255
255 255 255
255 255 255
255 255 255
255 255 255
255 0 255
0 255 255
255 255 255
0 0 0
127 127 127
255 255 255
255 255 255
255 255 255
255 255 255
255 255 255
255 255 255
255 255 255
255 255 255
255 255 255
255 255 255
255 255 255
255 255 255
255 255 255
255 255 255
255 0 255
255 0 255
255 255 255
0 255 255
255 255 255
0 0 0
255 255 255
127 127 127
127 127 127
255 255 255
255 255 255
255 255 255
255 255 255
255 255 255
255 255 255
255 255 255
255 255 255
255 255 255
255 255 255
255 0 255
255 0 255
255 255 255
255 255 255
0 255 255
255 255 255
255 255 255
255 255 255
0 0 0
255 255 255
255 255 255
127 127 127
127 127 127
255 255 255
255 255 255
255 255 255
255 255 255
255 255 255
255 255 255
255 0 255
255 0 255
255 255 255
255 255 255
255 255 255
255 255 255
0 255 255
255 255 255
255 255 255
255 255 255
0 0 0
255 255 255
255 255 255
255 255 255
255 255 255
127 127 127
127 127 127
255 255 255
255 255 255
255 0 255
255 0 255
255 255 255
255 255 255
255 255 255
255 255 255
255 255 255
0 255 255
255 255 255
255 255 255
255 255 255
255 255 255
255 255 255
0 0 0
255 255 255
255 255 255
255 255 255
255 255 255
255 255 255
127 127 127
127 127 127
255 255 255
255 255 255
255 255 255
255 255 255
255 255 255
255 255 255
255 255 255
0 255 255
255 255 255
255 255 255
255 255 255
255 255 255
255 255 255
0 0 0
255 255 255
255 255 255
255 255 255
255 255 255
255 255 255
255 255 255
255 255 255
255 255 255
255 255 255
255 255 255
255 255 255
255 255 255
255 255 255
0 255 255
255 255 255
255 255 255
255 255 255
255 255 255
255 255 255
255 255 255
255 255 255
0 0 0
255 255 255
255 255 255
255 255 255
255 255 255
255 255 255
255 255 255
255 255 255
255 255 255
255 255 255
255 255 255
255 255 255
255 255 255
0 255 255
255 255 255
255 255 255
255 255 255
255 255 255
255 255 255
255 255 255
255 255 255
0 0 0
255 255 255
255 255 255
255 255 255
255 255 255
255 255 255
255 255 255
255 255 255
255 255 255
255 255 255
255 255 255
255 255 255
0 255 255
255 255 255
255 255 255
255 255 255
255 255 255
255 255 255
255 255 255
255 255 255
255 255 255
255 255 255
0 0 0
255 255 255
255 255 255
255 255 255
255 255 255
255 255 255
255 255 255
255 255 255
255 255 255
255 255 255
255 255 255
0 255 255
255 255 255
255 255 255
255 255 255
255 255 255
255 255 255
255 255 255
255 255 255
255 255 255
255 255 255
0 0 0
255 255 255
255 255 255
255 255 255
255 255 255
255 255 255
